ffmpeg version 3.4.8-0ubuntu0.2 Copyright (c) 2000-2020 the FFmpeg developers
  built with gcc 7 (Ubuntu 7.5.0-3ubuntu1~18.04)
  configuration: --prefix=/usr --extra-version=0ubuntu0.2 --toolchain=hardened --libdir=/usr/lib/x86_64-linux-gnu --incdir=/usr/include/x86_64-linux-gnu --enable-gpl --disable-stripping --enable-avresample --enable-avisynth --enable-gnutls --enable-ladspa --enable-libass --enable-libbluray --enable-libbs2b --enable-libcaca --enable-libcdio --enable-libflite --enable-libfontconfig --enable-libfreetype --enable-libfribidi --enable-libgme --enable-libgsm --enable-libmp3lame --enable-libmysofa --enable-libopenjpeg --enable-libopenmpt --enable-libopus --enable-libpulse --enable-librubberband --enable-librsvg --enable-libshine --enable-libsnappy --enable-libsoxr --enable-libspeex --enable-libssh --enable-libtheora --enable-libtwolame --enable-libvorbis --enable-libvpx --enable-libwavpack --enable-libwebp --enable-libx265 --enable-libxml2 --enable-libxvid --enable-libzmq --enable-libzvbi --enable-omx --enable-openal --enable-opengl --enable-sdl2 --enable-libdc1394 --enable-libdrm --enable-libiec61883 --enable-chromaprint --enable-frei0r --enable-libopencv --enable-libx264 --enable-shared
  libavutil      55. 78.100 / 55. 78.100
  libavcodec     57.107.100 / 57.107.100
  libavformat    57. 83.100 / 57. 83.100
  libavdevice    57. 10.100 / 57. 10.100
  libavfilter     6.107.100 /  6.107.100
  libavresample   3.  7.  0 /  3.  7.  0
  libswscale      4.  8.100 /  4.  8.100
  libswresample   2.  9.100 /  2.  9.100
  libpostproc    54.  7.100 / 54.  7.100
[rawvideo @ 0x55810fe8da20] Estimating duration from bitrate, this may be inaccurate
Input #0, rawvideo, from '../../SVC-Encoder-20220109T061506Z-001/SVC-Encoder/Dataset/RollerCoaster/ERP_8x8/tile_yuv/Tile_28_480x240.yuv':
  Duration: 00:00:10.00, start: 0.000000, bitrate: 41472 kb/s
    Stream #0:0: Video: rawvideo (I420 / 0x30323449), yuv420p, 480x240, 41472 kb/s, 30 tbr, 30 tbn, 30 tbc
Stream mapping:
  Stream #0:0 -> #0:0 (rawvideo (native) -> h264 (libx264))
Press [q] to stop, [?] for help
[libx264 @ 0x55810fe9ac60] using cpu capabilities: MMX2 SSE2Fast LZCNT SSSE3 SSE4.2 AVX
[libx264 @ 0x55810fe9ac60] profile High, level 2.1
Output #0, rawvideo, to 'RollerCoaster_Tile_28_480x240_x264_QP_28.h264':
  Metadata:
    encoder         : Lavf57.83.100
    Stream #0:0: Video: h264 (libx264), yuv420p, 480x240, q=-1--1, 30 fps, 30 tbn, 30 tbc
    Metadata:
      encoder         : Lavc57.107.100 libx264
    Side data:
      cpb: bitrate max/min/avg: 0/0/0 buffer size: 0 vbv_delay: -1
frame=  300 fps=0.0 q=34.0 LPSNR=Y:inf U:inf V:inf *:inf size=      27kB time=00:00:09.93 bitrate=  22.7kbits/s speed=30.2x    
video:27kB audio:0kB subtitle:0kB other streams:0kB global headers:0kB muxing overhead: 0.000000%
[libx264 @ 0x55810fe9ac60] frame I:2     Avg QP:27.25  size:  1320  PSNR Mean Y:50.81 U:51.23 V:53.27 Avg:51.20 Global:51.17
[libx264 @ 0x55810fe9ac60] frame P:81    Avg QP:29.22  size:   201  PSNR Mean Y:49.48 U:50.49 V:52.20 Avg:49.98 Global:49.85
[libx264 @ 0x55810fe9ac60] frame B:217   Avg QP:33.65  size:    43  PSNR Mean Y:49.45 U:50.57 V:52.21 Avg:49.97 Global:49.84
[libx264 @ 0x55810fe9ac60] consecutive B-frames:  1.0%  6.7%  3.0% 89.3%
[libx264 @ 0x55810fe9ac60] mb I  I16..4: 69.0% 28.3%  2.7%
[libx264 @ 0x55810fe9ac60] mb P  I16..4:  1.7%  2.4%  0.0%  P16..4:  5.6%  1.4%  0.3%  0.0%  0.0%    skip:88.6%
[libx264 @ 0x55810fe9ac60] mb B  I16..4:  0.0%  0.0%  0.0%  B16..8:  3.4%  0.3%  0.0%  direct: 0.0%  skip:96.3%  L0:38.6% L1:59.3% BI: 2.1%
[libx264 @ 0x55810fe9ac60] 8x8 transform intra:47.1% inter:70.3%
[libx264 @ 0x55810fe9ac60] coded y,uvDC,uvAC intra: 3.3% 17.4% 2.7% inter: 0.4% 0.6% 0.0%
[libx264 @ 0x55810fe9ac60] i16 v,h,dc,p: 53% 25% 13%  9%
[libx264 @ 0x55810fe9ac60] i8 v,h,dc,ddl,ddr,vr,hd,vl,hu:  7%  3% 86%  0%  0%  2%  0%  0%  0%
[libx264 @ 0x55810fe9ac60] i4 v,h,dc,ddl,ddr,vr,hd,vl,hu: 19% 21% 29%  3%  6% 11%  4%  4%  3%
[libx264 @ 0x55810fe9ac60] i8c dc,h,v,p: 74% 14% 12%  1%
[libx264 @ 0x55810fe9ac60] Weighted P-Frames: Y:7.4% UV:0.0%
[libx264 @ 0x55810fe9ac60] ref P L0: 77.7%  9.0% 10.3%  2.9%  0.1%
[libx264 @ 0x55810fe9ac60] ref B L0: 91.9%  7.5%  0.6%
[libx264 @ 0x55810fe9ac60] ref B L1: 93.7%  6.3%
[libx264 @ 0x55810fe9ac60] PSNR Mean Y:49.464 U:50.555 V:52.213 Avg:49.978 Global:49.850 kb/s:22.52
